<?xml version="1.0" encoding="UTF-8" standalone="no"?>
<!-- Created with Inkscape (http://www.inkscape.org/) -->

<svg
   xmlns:dc="http://purl.org/dc/elements/1.1/"
   xmlns:cc="http://creativecommons.org/ns#"
   xmlns:rdf="http://www.w3.org/1999/02/22-rdf-syntax-ns#"
   xmlns:svg="http://www.w3.org/2000/svg"
   xmlns="http://www.w3.org/2000/svg"
   xmlns:sodipodi="http://sodipodi.sourceforge.net/DTD/sodipodi-0.dtd"
   xmlns:inkscape="http://www.inkscape.org/namespaces/inkscape"
   width="42.331856mm"
   height="50mm"
   viewBox="0 0 42.331856 50"
   version="1.1"
   id="svg8"
   inkscape:version="0.92.5 (2060ec1f9f, 2020-04-08)"
   sodipodi:docname="mb-logo.svg">
  <defs
     id="defs2">
    <clipPath
       id="clipPath831"
       clipPathUnits="userSpaceOnUse">
      <path
         inkscape:connector-curvature="0"
         id="path829"
         d="M 0,192.756 H 192.756 V 0 H 0 Z" />
    </clipPath>
  </defs>
  <sodipodi:namedview
     id="base"
     pagecolor="#ffffff"
     bordercolor="#666666"
     borderopacity="1.0"
     inkscape:pageopacity="0.0"
     inkscape:pageshadow="2"
     inkscape:zoom="1.979899"
     inkscape:cx="48.668037"
     inkscape:cy="64.840609"
     inkscape:document-units="mm"
     inkscape:current-layer="g827"
     showgrid="false"
     fit-margin-top="0"
     fit-margin-left="0"
     fit-margin-right="0"
     fit-margin-bottom="0"
     inkscape:window-width="1920"
     inkscape:window-height="1051"
     inkscape:window-x="2391"
     inkscape:window-y="222"
     inkscape:window-maximized="1" />
  <metadata
     id="metadata5">
    <rdf:RDF>
      <cc:Work
         rdf:about="">
        <dc:format>image/svg+xml</dc:format>
        <dc:type
           rdf:resource="http://purl.org/dc/dcmitype/StillImage" />
        <dc:title></dc:title>
      </cc:Work>
    </rdf:RDF>
  </metadata>
  <g
     inkscape:label="Layer 1"
     inkscape:groupmode="layer"
     id="layer1"
     transform="translate(51.588781,-124.49801)">
    <g
       transform="matrix(0.35277777,0,0,-0.35277777,-63.860008,182.8333)"
       inkscape:label="multibanco"
       id="g823">
      <g
         id="g825">
        <g
           clip-path="url(#clipPath831)"
           id="g827">
          <g
             transform="matrix(0.97410172,0,0,0.97410172,94.168762,51.140616)"
             id="g833">
            <path
               inkscape:connector-curvature="0"
               id="path835"
               style="fill:#1766ac;fill-opacity:1;fill-rule:evenodd;stroke:none"
               d="m 0,0 h 50.442 c 11.518,0 11.633,12.242 10.46,18.286 -0.641,4.062 -7.544,4.028 -8.304,0 V 13.57 c 0,-2.154 -1.764,-3.918 -3.919,-3.918 H 0 -3.893 -48.03 c -2.155,0 -3.918,1.764 -3.918,3.918 v 4.716 c -0.76,4.028 -7.663,4.062 -8.304,0 C -61.424,12.242 -61.311,0 -49.792,0 h 45.899 z m -35.662,117.256 h 73.875 3.903 c 5.465,0 9.935,-4.731 9.935,-10.514 v -5.025 c 0,-7.104 -9.624,-7.077 -9.624,-0.048 v 2.745 c 0,1.746 -1.428,3.174 -3.175,3.174 h -77.937 c -1.746,0 -3.174,-1.428 -3.174,-3.174 v -2.689 c 0,-7.065 -9.172,-7.015 -9.172,-0.153 v 5.17 c 0,5.783 4.471,10.514 9.935,10.514 z" />
          </g>
          <g
             transform="matrix(0.97410172,0,0,0.97410172,142.95986,109.09587)"
             id="g837">
            <path
               inkscape:connector-curvature="0"
               id="path839"
               style="fill:#383536;fill-opacity:1;fill-rule:evenodd;stroke:none"
               d="m 0,0 c 5.387,-2.534 9.106,-7.765 9.106,-13.771 0,-8.468 -7.393,-15.396 -16.431,-15.396 h -25.329 c -2.369,0 -4.308,1.816 -4.308,4.036 V 23.06 c 0,2.324 1.904,4.227 4.232,4.227 h 21.097 c 8.881,0 16.147,-7.259 16.147,-16.13 C 4.514,6.838 2.791,2.903 0,0 m -18.905,3.925 h 8.042 v 0.089 c 3.662,0.562 6.49,3.746 6.49,7.559 v 0 c 0,4.206 -3.442,7.648 -7.648,7.648 H -28.22 v -39.99 h 20.542 c 4.344,0 7.898,3.554 7.898,7.898 0,4.344 -3.554,7.898 -7.898,7.898 h -3.185 v 0.019 h -8.042 c -2.442,0 -4.44,1.997 -4.44,4.439 0,2.442 1.998,4.44 4.44,4.44" />
          </g>
          <g
             transform="matrix(0.97410172,0,0,0.97410172,62.561305,36.728781)"
             id="g841">
            <path
               inkscape:connector-curvature="0"
               id="path843"
               style="fill:#383536;fill-opacity:1;fill-rule:nonzero;stroke:none"
               d="M 0,0 C 0,0.75 0.608,1.358 1.358,1.358 2.108,1.358 2.717,0.75 2.717,0 V -7.346 -7.348 H 2.711 c 0,-1.679 -0.687,-3.205 -1.792,-4.31 -1.101,-1.101 -2.624,-1.784 -4.302,-1.785 v -0.006 h -0.003 -0.002 v 0.006 c -1.679,0 -3.205,0.686 -4.31,1.792 -1.101,1.101 -1.784,2.624 -1.785,4.301 H -9.489 V -7.346 0 c 0,0.75 0.609,1.358 1.359,1.358 0.75,0 1.358,-0.608 1.358,-1.358 V -7.346 -7.35 h -0.005 c 0,-0.927 0.383,-1.774 1,-2.391 0.614,-0.613 1.46,-0.996 2.389,-0.996 v 0.005 h 0.002 0.003 v -0.005 c 0.928,0 1.776,0.383 2.392,1 0.614,0.614 0.996,1.46 0.996,2.389 H 0 v 0.002 z" />
          </g>
          <g
             transform="matrix(0.97410172,0,0,0.97410172,75.065264,26.274332)"
             id="g845">
            <path
               inkscape:connector-curvature="0"
               id="path847"
               style="fill:#383536;fill-opacity:1;fill-rule:nonzero;stroke:none"
               d="M 0,0 C 0.75,0 1.358,-0.608 1.358,-1.358 1.358,-2.108 0.75,-2.717 0,-2.717 h -3.75 -10e-4 v 0.006 c -1.406,0 -2.683,0.575 -3.608,1.499 -0.92,0.922 -1.492,2.195 -1.493,3.6 h -0.005 v 0.004 8.34 c 0,0.75 0.608,1.359 1.358,1.359 0.75,0 1.358,-0.609 1.358,-1.359 V 2.392 2.388 h -0.005 c 0,-0.654 0.271,-1.252 0.708,-1.689 0.434,-0.433 1.031,-0.704 1.687,-0.704 V 0 h 10e-4 z" />
          </g>
          <g
             transform="matrix(0.97410172,0,0,0.97410172,103.03504,85.372985)"
             id="g849">
            <path
               inkscape:connector-curvature="0"
               id="path851"
               style="fill:#383536;fill-opacity:1;fill-rule:nonzero;stroke:none"
               d="m 0,0 c 0.297,-2.791 -1.726,-5.295 -4.517,-5.591 -2.791,-0.297 -5.295,1.725 -5.591,4.517 l -4.165,38.324 -14.752,-37.473 -0.015,-0.035 -0.001,-0.004 v -0.001 l -0.041,-0.099 -0.033,-0.078 -0.008,-0.019 -0.035,-0.078 -0.022,-0.047 -0.035,-0.073 -0.017,-0.034 -0.039,-0.077 -0.014,-0.027 c -0.272,-0.513 -0.622,-0.964 -1.031,-1.343 l -0.015,-0.013 -0.076,-0.069 c -0.266,-0.236 -0.56,-0.444 -0.879,-0.623 l -0.022,-0.012 -0.096,-0.052 -0.004,-0.002 -0.089,-0.046 -0.041,-0.021 -0.057,-0.027 -0.061,-0.028 -0.053,-0.025 -0.063,-0.027 -0.055,-0.023 -0.052,-0.022 -0.047,-0.018 -0.027,-0.011 -0.043,-0.016 -0.067,-0.025 -0.039,-0.013 c -0.492,-0.172 -0.993,-0.264 -1.49,-0.282 l -0.06,-0.002 -0.072,-10e-4 h -0.052 -0.053 l -0.07,10e-4 -0.064,0.002 c -0.555,0.02 -1.117,0.133 -1.664,0.347 l -0.068,0.027 -0.017,0.008 -0.068,0.027 -0.066,0.029 -0.053,0.025 -0.057,0.026 -0.061,0.029 -0.035,0.018 -0.093,0.047 -0.009,0.006 -0.079,0.043 -0.045,0.024 c -0.279,0.157 -0.538,0.338 -0.777,0.539 l -0.019,0.017 c -0.057,0.049 -0.113,0.097 -0.168,0.148 l -0.003,0.004 c -0.043,0.04 -0.086,0.081 -0.127,0.122 -0.041,0.042 -0.083,0.084 -0.123,0.127 l -0.003,0.004 c -0.051,0.055 -0.1,0.11 -0.149,0.168 l -0.017,0.019 c -0.201,0.239 -0.381,0.498 -0.538,0.777 l -0.025,0.044 -0.044,0.08 -0.004,0.01 -0.048,0.091 -0.017,0.036 -0.029,0.06 -0.027,0.058 -0.024,0.053 -0.029,0.066 -0.029,0.067 -0.006,0.017 -0.028,0.068 -14.768,37.512 -4.165,-38.324 c -0.297,-2.792 -2.8,-4.814 -5.591,-4.517 -2.792,0.296 -4.814,2.8 -4.517,5.591 l 4.91,45.183 0.002,0.012 0.002,0.019 -0.002,0.001 c 0.059,0.526 0.17,1.05 0.33,1.564 0.155,0.499 0.362,0.991 0.618,1.471 1.254,2.355 3.561,4.007 6.314,4.388 l 0.01,0.002 c 0.092,0.012 0.185,0.022 0.277,0.03 0.431,0.045 0.86,0.058 1.282,0.038 l 0.02,-10e-4 v 10e-4 c 0.549,-0.026 1.063,-0.095 1.537,-0.205 2.626,-0.613 4.857,-2.44 5.907,-5.107 l 12.57,-31.927 12.569,31.927 c 1.05,2.667 3.281,4.494 5.907,5.107 0.473,0.11 0.987,0.179 1.537,0.205 v -10e-4 l 0.02,10e-4 c 0.423,0.02 0.853,0.007 1.285,-0.038 0.091,-0.008 0.182,-0.018 0.274,-0.03 l 0.01,-0.002 c 2.753,-0.381 5.061,-2.033 6.315,-4.388 0.255,-0.48 0.463,-0.972 0.617,-1.471 0.16,-0.514 0.271,-1.037 0.33,-1.564 l -0.002,-0.001 0.002,-0.019 0.002,-0.012 z" />
          </g>
          <g
             transform="matrix(0.97410172,0,0,0.97410172,52.827399,25.106189)"
             id="g853">
            <path
               inkscape:connector-curvature="0"
               id="path855"
               style="fill:#383536;fill-opacity:1;fill-rule:nonzero;stroke:none"
               d="m 0,0 c 0.088,-0.744 -0.445,-1.419 -1.188,-1.507 -0.745,-0.087 -1.42,0.444 -1.508,1.189 L -3.86,9.463 -8.01,-0.16 c -0.296,-0.689 -1.094,-1.007 -1.782,-0.711 -0.333,0.142 -0.579,0.403 -0.711,0.711 v 0 l -4.15,9.623 -1.165,-9.781 c -0.088,-0.745 -0.763,-1.276 -1.507,-1.189 -0.744,0.088 -1.276,0.763 -1.188,1.507 l 1.351,11.357 c 0.088,0.742 0.54,1.351 1.187,1.685 0.085,0.045 0.174,0.084 0.264,0.118 0.035,0.014 0.069,0.026 0.105,0.037 0.115,0.036 0.249,0.066 0.4,0.086 v -10e-4 l 0.011,10e-4 0.012,0.002 c 0.709,0.09 1.408,-0.139 1.897,-0.599 0.098,-0.093 0.191,-0.2 0.277,-0.319 0.058,-0.082 0.112,-0.167 0.158,-0.255 0.029,-0.049 0.054,-0.098 0.076,-0.151 l 3.518,-8.157 3.518,8.157 c 0.291,0.673 0.889,1.133 1.589,1.287 0.134,0.029 0.268,0.049 0.399,0.055 0.101,0.005 0.201,0.005 0.296,-0.001 l 0.009,-10e-4 v 0 c 0.033,-0.002 0.066,-0.005 0.1,-0.009 l 0.011,-0.002 -10e-4,-0.004 0.006,-10e-4 c 0.726,-0.092 1.344,-0.5 1.691,-1.085 H -1.64 c 0.073,-0.122 0.132,-0.252 0.18,-0.387 0.029,-0.085 0.055,-0.173 0.074,-0.266 0.014,-0.058 0.025,-0.117 0.032,-0.178 l 0.002,-0.012 z" />
          </g>
          <g
             transform="matrix(0.97410172,0,0,0.97410172,80.845681,24.951112)"
             id="g857">
            <path
               inkscape:connector-curvature="0"
               id="path859"
               style="fill:#383536;fill-opacity:1;fill-rule:nonzero;stroke:none"
               d="m 0,0 c 0,-0.75 -0.608,-1.358 -1.358,-1.358 -0.75,0 -1.358,0.608 -1.358,1.358 v 10.732 h -3.865 c -0.75,0 -1.358,0.609 -1.358,1.359 0,0.75 0.608,1.358 1.358,1.358 h 5.223 5.223 c 0.75,0 1.358,-0.608 1.358,-1.358 0,-0.75 -0.608,-1.359 -1.358,-1.359 H 0 Z" />
          </g>
          <g
             transform="matrix(0.97410172,0,0,0.97410172,89.098466,24.951112)"
             id="g861">
            <path
               inkscape:connector-curvature="0"
               id="path863"
               style="fill:#383536;fill-opacity:1;fill-rule:nonzero;stroke:none"
               d="m 0,0 c 0,-0.75 -0.608,-1.358 -1.358,-1.358 -0.75,0 -1.358,0.608 -1.358,1.358 v 12.091 c 0,0.75 0.608,1.358 1.358,1.358 0.75,0 1.358,-0.608 1.358,-1.358 z" />
          </g>
          <g
             transform="matrix(0.97410172,0,0,0.97410172,116.24064,25.111936)"
             id="g865">
            <path
               inkscape:connector-curvature="0"
               id="path867"
               style="fill:#383536;fill-opacity:1;fill-rule:nonzero;stroke:none"
               d="m 0,0 c 0.091,-0.744 -0.439,-1.422 -1.184,-1.513 -0.744,-0.091 -1.42,0.44 -1.511,1.184 L -3.173,3.507 H -7.88 c -0.75,0 -1.358,0.608 -1.358,1.358 0,0.75 0.608,1.359 1.358,1.359 h 4.369 L -3.635,7.22 -3.637,7.231 c -0.004,0.032 -0.007,0.064 -0.008,0.095 -0.035,0.228 -0.086,0.46 -0.157,0.694 -0.079,0.262 -0.173,0.503 -0.279,0.716 -0.539,1.077 -1.514,1.831 -2.747,1.831 h -0.013 v 0.005 c -0.235,0 -0.465,-0.029 -0.683,-0.082 -0.205,-0.049 -0.408,-0.126 -0.607,-0.227 -1.042,-0.531 -1.74,-1.691 -1.89,-3.027 l -0.85,-7.549 c -0.082,-0.745 -0.753,-1.282 -1.497,-1.2 -0.743,0.082 -1.28,0.753 -1.198,1.497 l 0.849,7.549 c 0.251,2.229 1.488,4.2 3.356,5.15 0.367,0.186 0.768,0.336 1.2,0.439 0.418,0.102 0.859,0.155 1.32,0.156 v 0.006 h 0.013 c 2.355,0 4.184,-1.376 5.166,-3.338 0.189,-0.378 0.344,-0.763 0.46,-1.152 0.104,-0.347 0.183,-0.717 0.238,-1.106 0.01,-0.042 0.018,-0.084 0.023,-0.127 L -0.939,7.55 Z" />
          </g>
          <g
             transform="matrix(0.97410172,0,0,0.97410172,120.29115,24.951112)"
             id="g869">
            <path
               inkscape:connector-curvature="0"
               id="path871"
               style="fill:#383536;fill-opacity:1;fill-rule:nonzero;stroke:none"
               d="m 0,0 c 0,-0.75 -0.608,-1.358 -1.358,-1.358 -0.75,0 -1.359,0.608 -1.359,1.358 v 11.231 0.005 c 0,0.078 0.006,0.156 0.019,0.23 0.018,0.153 0.055,0.3 0.107,0.44 l 0.002,0.004 -0.002,10e-4 c 0.028,0.075 0.067,0.156 0.112,0.243 l 0.003,0.004 -0.003,0.001 c 0.227,0.412 0.596,0.732 1.061,0.892 0.062,0.02 0.124,0.038 0.187,0.05 0.048,0.011 0.096,0.021 0.144,0.028 l 0.011,0.002 v 0.004 c 0.091,0.013 0.2,0.019 0.325,0.016 h 0.01 0.024 0.001 c 0.557,-0.022 1.077,-0.28 1.436,-0.737 L 7.949,3.195 v 8.896 c 0,0.75 0.609,1.358 1.359,1.358 0.75,0 1.358,-0.608 1.358,-1.358 V 0.909 C 10.666,0.318 10.4,-0.216 9.957,-0.578 9.873,-0.646 9.78,-0.71 9.68,-0.766 9.626,-0.796 9.569,-0.823 9.511,-0.849 L 9.496,-0.855 9.493,-0.856 C 9.457,-0.873 9.42,-0.889 9.381,-0.902 L 9.377,-0.904 v 0.002 H 9.376 L 9.375,-0.901 9.366,-0.904 C 8.873,-1.074 8.355,-1.038 7.91,-0.822 7.851,-0.797 7.793,-0.767 7.735,-0.731 7.643,-0.675 7.552,-0.606 7.466,-0.53 7.412,-0.482 7.354,-0.422 7.293,-0.349 L 7.248,-0.297 7.245,-0.294 7.246,-0.293 7.229,-0.272 0,8.945 Z" />
          </g>
          <g
             transform="matrix(0.97410172,0,0,0.97410172,140.95652,26.274332)"
             id="g873">
            <path
               inkscape:connector-curvature="0"
               id="path875"
               style="fill:#383536;fill-opacity:1;fill-rule:nonzero;stroke:none"
               d="M 0,0 C 0.75,0 1.358,-0.608 1.358,-1.358 1.358,-2.108 0.75,-2.717 0,-2.717 h -4.002 -0.002 v 0.006 c -1.475,0 -2.815,0.604 -3.785,1.574 -0.966,0.966 -1.566,2.304 -1.568,3.778 H -9.362 V 2.644 6.73 6.732 h 0.005 c 10e-4,1.475 0.603,2.816 1.574,3.786 0.967,0.965 2.304,1.566 3.777,1.567 v 0.006 H -4.002 0 c 0.75,0 1.358,-0.609 1.358,-1.359 C 1.358,9.982 0.75,9.374 0,9.374 h -4.002 -0.004 v 0.005 c -0.723,0 -1.385,-0.3 -1.867,-0.782 -0.48,-0.48 -0.777,-1.14 -0.777,-1.865 h 0.004 V 6.73 2.644 2.641 H -6.65 c 0,-0.724 0.299,-1.386 0.782,-1.868 0.479,-0.479 1.139,-0.778 1.864,-0.778 V 0 h 0.002 z" />
          </g>
          <g
             transform="matrix(0.97410172,0,0,0.97410172,148.61238,35.410334)"
             id="g877">
            <path
               inkscape:connector-curvature="0"
               id="path879"
               style="fill:#383536;fill-opacity:1;fill-rule:nonzero;stroke:none"
               d="M 0,0 V -0.005 H -0.002 -0.005 V 0 c -1.001,0 -1.912,-0.394 -2.57,-1.026 -0.647,-0.621 -1.048,-1.471 -1.049,-2.399 h 0.006 v -0.002 -2.53 -0.003 h -0.006 c 10e-4,-0.927 0.402,-1.775 1.047,-2.396 0.66,-0.633 1.571,-1.028 2.574,-1.028 v 0.005 h 0.001 0.004 v -0.005 c 1.002,0 1.912,0.394 2.571,1.028 0.646,0.62 1.048,1.469 1.048,2.398 H 3.616 v 0.001 2.53 0.003 H 3.621 C 3.62,-2.496 3.219,-1.647 2.574,-1.027 1.914,-0.394 1.003,0 0,0 M -0.002,2.712 H 0 V 2.706 c 1.732,0 3.309,-0.683 4.452,-1.78 1.156,-1.112 1.874,-2.651 1.875,-4.35 h 0.005 v -0.003 -2.53 -0.001 H 6.327 c -0.001,-1.7 -0.719,-3.24 -1.876,-4.352 -1.142,-1.097 -2.718,-1.779 -4.449,-1.78 v -0.006 h -0.004 -0.001 v 0.006 c -1.732,0 -3.309,0.683 -4.452,1.781 -1.155,1.111 -1.874,2.65 -1.875,4.349 h -0.005 v 0.003 2.53 0.002 h 0.005 c 0.001,1.699 0.72,3.24 1.877,4.351 1.142,1.097 2.718,1.779 4.448,1.78 v 0.006 z" />
          </g>
          <g
             transform="matrix(0.97410172,0,0,0.97410172,92.854991,35.405659)"
             id="g881">
            <path
               inkscape:connector-curvature="0"
               id="path883"
               style="fill:#383536;fill-opacity:1;fill-rule:nonzero;stroke:none"
               d="M 0,0 V -4.602 -9.374 H 5.247 5.25 v -0.005 c 0.466,0 0.893,0.194 1.206,0.507 0.31,0.309 0.502,0.736 0.502,1.203 H 6.954 v 0.002 0.004 h 0.004 c 0,0.438 -0.172,0.844 -0.454,1.15 l -0.052,0.05 c -0.313,0.314 -0.74,0.508 -1.203,0.508 V -5.96 H 5.247 3.94 3.936 3.44 c -0.749,0 -1.358,0.61 -1.358,1.358 0,0.748 0.609,1.359 1.358,1.359 H 3.936 3.94 4.058 c 0.393,0.03 0.752,0.207 1.023,0.476 l 0.002,-0.002 0.002,0.002 c 0.294,0.295 0.478,0.7 0.478,1.144 H 5.558 v 10e-4 0.001 0.003 h 0.005 c 0,0.442 -0.185,0.848 -0.482,1.145 -0.294,0.294 -0.7,0.478 -1.143,0.478 L 3.938,0 H 3.936 Z M -2.716,-4.602 V 1.299 1.3 c 0,0.192 0.04,0.375 0.111,0.54 0.073,0.177 0.181,0.336 0.315,0.467 l 0.017,0.015 -10e-4,10e-4 c 0.23,0.22 0.536,0.367 0.892,0.388 0.027,0.002 0.054,0.004 0.08,0.003 v 0.003 h 0.004 5.234 0.002 V 2.711 c 1.194,0 2.279,-0.488 3.063,-1.273 0.782,-0.782 1.267,-1.863 1.268,-3.056 H 8.275 V -1.621 -1.622 -1.623 H 8.269 c 0,-0.846 -0.246,-1.636 -0.667,-2.304 0.279,-0.177 0.538,-0.383 0.771,-0.615 0.029,-0.029 0.056,-0.06 0.083,-0.091 0.747,-0.789 1.208,-1.857 1.209,-3.03 H 9.67 V -7.667 -7.669 H 9.665 c 0,-1.217 -0.498,-2.323 -1.299,-3.124 -0.796,-0.796 -1.899,-1.291 -3.116,-1.292 v -0.006 H 5.247 -1.358 c -0.75,0 -1.358,0.609 -1.358,1.359 z" />
          </g>
        </g>
      </g>
    </g>
  </g>
</svg>
