<?xml version="1.0" encoding="UTF-8" standalone="no"?>
<!-- Generator: Adobe Illustrator 25.0.1, SVG Export Plug-In . SVG Version: 6.00 Build 0)  -->

<svg
   xmlns:dc="http://purl.org/dc/elements/1.1/"
   xmlns:cc="http://creativecommons.org/ns#"
   xmlns:rdf="http://www.w3.org/1999/02/22-rdf-syntax-ns#"
   xmlns:svg="http://www.w3.org/2000/svg"
   xmlns="http://www.w3.org/2000/svg"
   xmlns:sodipodi="http://sodipodi.sourceforge.net/DTD/sodipodi-0.dtd"
   xmlns:inkscape="http://www.inkscape.org/namespaces/inkscape"
   version="1.1"
   id="Layer_1"
   x="0px"
   y="0px"
   viewBox="0 0 38.515924 50.00001"
   xml:space="preserve"
   sodipodi:docname="mbway-logo.svg"
   width="38.515923"
   height="50.000008"
   inkscape:version="0.92.5 (2060ec1f9f, 2020-04-08)"><metadata
   id="metadata52"><rdf:RDF><cc:Work
       rdf:about=""><dc:format>image/svg+xml</dc:format><dc:type
         rdf:resource="http://purl.org/dc/dcmitype/StillImage" /><dc:title></dc:title></cc:Work></rdf:RDF></metadata><defs
   id="defs50">
	
</defs><sodipodi:namedview
   pagecolor="#ffffff"
   bordercolor="#666666"
   borderopacity="1"
   objecttolerance="10"
   gridtolerance="10"
   guidetolerance="10"
   inkscape:pageopacity="0"
   inkscape:pageshadow="2"
   inkscape:window-width="1920"
   inkscape:window-height="1051"
   id="namedview48"
   showgrid="false"
   inkscape:zoom="6.765116"
   inkscape:cx="24.750392"
   inkscape:cy="22.246727"
   inkscape:window-x="2391"
   inkscape:window-y="222"
   inkscape:window-maximized="1"
   inkscape:current-layer="g43"
   fit-margin-top="0"
   fit-margin-left="0"
   fit-margin-right="0"
   fit-margin-bottom="0" />
<style
   type="text/css"
   id="style2">
	.Arched_x0020_Green{fill:url(#SVGID_1_);stroke:#FFFFFF;stroke-width:0.25;stroke-miterlimit:1;}
	.st0{fill:#D60510;}
	.st1{fill:#FFFFFF;}
</style>
<linearGradient
   id="SVGID_1_"
   gradientUnits="userSpaceOnUse"
   x1="-309.53561"
   y1="597.0542"
   x2="-308.82849"
   y2="596.34711">
	<stop
   offset="0"
   style="stop-color:#1DA238"
   id="stop4" />
	<stop
   offset="0.9831"
   style="stop-color:#24391D"
   id="stop6" />
</linearGradient>


<g
   id="g43"
   transform="translate(-70.867856,-311.74755)">
		<path
   style="fill:#d60510;stroke-width:0.17370306"
   inkscape:connector-curvature="0"
   id="path29"
   d="m 73.741277,343.03842 -0.126803,0.96579 c -0.05732,0.47595 0.317876,0.89457 0.804245,0.89457 h 31.412461 c 0.48811,0 0.86331,-0.41862 0.80772,-0.89457 l -0.13028,-0.96579 c -0.0781,-0.75213 0.47074,-1.44 1.22113,-1.51816 0.75562,-0.0817 1.42263,0.469 1.50079,1.21939 l 0.1216,0.93973 c 0.24492,2.10007 -0.94668,3.9448 -3.06933,3.9448 H 73.968828 c -2.122651,0 -3.314254,-1.84299 -3.069333,-3.9448 l 0.121592,-0.93973 c 0.0799,-0.75039 0.745187,-1.30103 1.497321,-1.21939 0.752134,0.0799 1.299299,0.76603 1.222869,1.51816"
   class="st0" />
		<path
   inkscape:connector-curvature="0"
   id="path31"
   d="m 102.77922,335.75679 c 1.52859,0.004 2.74625,-1.10996 2.71498,-2.57602 -0.0313,-1.50079 -1.39658,-2.47006 -2.91995,-2.4718 h -3.074549 c -0.680915,0 -1.240236,-0.56626 -1.240236,-1.27498 0,-0.71044 0.557584,-1.27845 1.240236,-1.27845 h 2.054909 c 1.38441,-0.0556 2.45269,-0.89458 2.5187,-2.20429 0.0695,-1.40179 -1.13602,-2.45442 -2.61077,-2.45442 h -4.985271 l -0.02084,12.26169 h 6.322781 z m 3.77977,-9.81423 c 0,1.27846 -0.45336,2.0028 -1.20376,2.89389 l -0.0747,0.0903 0.10422,0.0642 c 1.48517,0.90499 2.52218,2.27378 2.59861,4.19494 0.11463,2.86262 -2.31026,5.23019 -5.19026,5.22498 h -7.590819 c -0.73824,0 -1.335776,-0.61491 -1.335776,-1.37051 V 322.3173 c 0,-0.75909 0.597536,-1.37052 1.332299,-1.37052 l 6.267206,0.0174 c 2.73235,0.002 5.09298,2.00974 5.09298,4.97832"
   style="stroke-width:0.17370306" />
		<path
   inkscape:connector-curvature="0"
   id="path33"
   d="m 82.09292,333.36316 0.03474,0.10423 0.03822,-0.10423 c 0.352617,-0.96926 0.776451,-2.04276 1.226343,-3.2135 0.463785,-1.23156 0.925837,-2.40927 1.387885,-3.53139 0.467262,-1.13949 0.908468,-2.15566 1.33057,-3.04154 0.420358,-0.90499 0.7695,-1.52685 1.038743,-1.86731 0.415154,-0.49679 0.964052,-0.74693 1.646706,-0.74693 h 0.314404 c 0.418623,0 0.745186,0.10944 0.990103,0.31789 0.224081,0.19628 0.357829,0.42209 0.396044,0.68091 l 1.961106,15.21291 c 0,0.39258 -0.112906,0.69482 -0.335245,0.92063 -0.222339,0.21018 -0.540216,0.31441 -0.955366,0.31441 -0.415149,0 -0.74519,-0.099 -0.986635,-0.29183 -0.2675,-0.19281 -0.420359,-0.44642 -0.458574,-0.76082 -0.06601,-0.50547 -0.126802,-1.06827 -0.187601,-1.68492 -0.08685,-0.6149 -0.392567,-3.26909 -0.479422,-3.93784 -0.0799,-0.68961 -0.632279,-4.98701 -0.819875,-6.54861 l -0.01736,-0.13201 -0.628807,1.3184 c -0.213652,0.45336 -0.444678,0.9988 -0.698282,1.63281 -0.250137,0.63401 -0.507214,1.3045 -0.759087,2.01149 -0.274446,0.68611 -1.488633,4.15671 -1.488633,4.15671 -0.112908,0.31439 -0.326562,0.94841 -0.519375,1.53206 -0.196282,0.58017 -0.375196,1.10475 -0.423833,1.2055 -0.288348,0.57321 -0.851145,0.95189 -1.566802,0.9571 -0.724341,-0.004 -1.287141,-0.38389 -1.572013,-0.9571 -0.05211,-0.10075 -0.231025,-0.62707 -0.42731,-1.2055 -0.196284,-0.58365 -0.404727,-1.21767 -0.522846,-1.53206 0,0 -1.214184,-3.4706 -1.485161,-4.15671 -0.253606,-0.70699 -0.507213,-1.37574 -0.760819,-2.01149 -0.253607,-0.63401 -0.484632,-1.17945 -0.693075,-1.63281 l -0.63228,-1.3184 -0.01389,0.13201 c -0.191074,1.5616 -0.738238,5.859 -0.821616,6.54861 -0.08685,0.66875 -0.392568,3.32294 -0.475946,3.93784 -0.06427,0.61665 -0.126804,1.17945 -0.19281,1.68492 -0.03822,0.3144 -0.191074,0.56801 -0.455102,0.76082 -0.244922,0.19282 -0.573221,0.29183 -0.990108,0.29183 -0.41515,0 -0.729553,-0.10423 -0.951893,-0.31441 -0.222339,-0.22581 -0.335246,-0.53152 -0.336984,-0.92063 l 1.961107,-15.21291 c 0.04342,-0.25882 0.173704,-0.48463 0.397781,-0.68091 0.243184,-0.20845 0.574956,-0.31789 0.986634,-0.31789 h 0.317875 c 0.68439,0 1.231555,0.25188 1.644969,0.74693 0.270976,0.34046 0.616646,0.96057 1.038745,1.86731 0.423834,0.88588 0.865041,1.90205 1.330564,3.04154 0.46205,1.12212 0.925838,2.29983 1.391361,3.53139 0.446419,1.17074 0.870253,2.24424 1.222871,3.2135"
   style="stroke-width:0.17370306" />
		<path
   style="fill:#d60510;stroke-width:0.17370306"
   inkscape:connector-curvature="0"
   id="path35"
   d="m 78.24366,311.74755 h 23.85985 c 2.24772,0 3.36637,1.6884 3.62866,3.91353 l 0.10075,0.71219 c 0.0799,0.76429 -0.48116,1.44868 -1.23156,1.52858 -0.75213,0.0799 -1.42784,-0.47247 -1.506,-1.23677 l -0.0955,-0.68091 c -0.10075,-0.84593 -0.45857,-1.49732 -1.3184,-1.49732 H 78.665758 c -0.85983,0 -1.217658,0.65139 -1.318405,1.49732 l -0.09206,0.68091 c -0.07817,0.7643 -0.752134,1.31841 -1.509479,1.23677 -0.752135,-0.0799 -1.313196,-0.76429 -1.231555,-1.52858 l 0.100748,-0.71219 c 0.265765,-2.22687 1.382676,-3.91353 3.628656,-3.91353"
   class="st0" />
		
		
		<g
   id="g873"
   transform="matrix(0.17370306,0,0,0.17370306,50.752239,297.88194)"><path
     d="m 177.10677,325.25123 c -0.95,3.67 -1.93,7.59 -2.96,11.76 -1.03,4.15 -2.06,8.14 -3.07,11.94 -1,3.8 -1.94,7.12 -2.86,10 -0.9,2.87 -1.66,4.83 -2.26,5.89 -1.06,1.88 -2.94,2.81 -5.61,2.81 -0.75,0 -1.71,-0.15 -2.92,-0.46 -1.2,-0.3 -2.19,-1.15 -3.01,-2.54 -0.6,-1.06 -1.35,-3.12 -2.26,-6.2 -0.9,-3.07 -1.84,-6.59 -2.86,-10.6 -1,-4 -1.99,-8.24 -3.01,-12.71 -1,-4.47 -1.91,-8.6 -2.71,-12.46 -0.8,-3.82 -1.48,-7.11 -2.01,-9.8 -0.53,-2.71 -0.83,-4.3 -0.9,-4.85 -0.07,-0.33 -0.1,-0.56 -0.1,-0.7 v -0.4 c 0,-1.13 0.42,-2.06 1.3,-2.76 0.86,-0.7 1.94,-1.05 3.21,-1.05 1.21,0 2.18,0.27 2.92,0.76 0.73,0.48 1.26,1.38 1.59,2.64 0,0.13 0.2,1.11 0.55,2.91 0.38,1.79 0.85,4.1 1.41,6.89 0.58,2.81 1.21,5.93 1.91,9.4 0.7,3.47 1.43,6.99 2.21,10.56 0.76,3.55 1.54,6.99 2.31,10.35 0.76,3.32 1.48,6.2 2.16,8.59 0.66,-2.26 1.39,-4.85 2.21,-7.76 0.8,-2.89 1.61,-5.9 2.41,-8.98 0.8,-3.11 1.56,-6.2 2.31,-9.3 0.73,-3.11 1.41,-5.99 2.06,-8.65 0.63,-2.67 1.18,-5.03 1.64,-7.09 0.46,-2.08 0.83,-3.61 1.11,-4.62 0.33,-1.26 0.96,-2.26 1.89,-2.99 0.96,-0.73 2.08,-1.11 3.42,-1.11 1.46,0 2.67,0.4 3.62,1.16 0.91,0.77 1.53,1.76 1.79,2.94 0.75,3.27 1.54,6.93 2.41,10.96 0.86,4.02 1.78,8.11 2.71,12.24 0.95,4.13 1.93,8.19 2.91,12.16 1.01,3.97 1.98,7.49 2.92,10.55 0.66,-2.39 1.39,-5.27 2.16,-8.59 0.76,-3.36 1.54,-6.78 2.34,-10.31 0.81,-3.52 1.58,-7.03 2.31,-10.5 0.75,-3.46 1.41,-6.58 2.03,-9.35 0.6,-2.76 1.08,-5.02 1.45,-6.74 0.37,-1.74 0.55,-2.64 0.55,-2.71 0.33,-1.26 0.86,-2.16 1.61,-2.64 0.73,-0.5 1.71,-0.76 2.91,-0.76 1.26,0 2.34,0.35 3.2,1.05 0.88,0.7 1.31,1.63 1.31,2.76 v 0.4 c 0,0.13 -0.03,0.37 -0.1,0.7 -0.05,0.55 -0.38,2.14 -0.96,4.85 -0.55,2.69 -1.24,5.98 -2.04,9.8 -0.81,3.85 -1.71,7.97 -2.72,12.41 -0.98,4.43 -1.98,8.65 -2.94,12.64 -0.98,4 -1.91,7.53 -2.82,10.56 -0.9,3.02 -1.66,5.08 -2.26,6.14 -0.8,1.4 -1.81,2.29 -3.05,2.66 -1.25,0.37 -2.23,0.55 -2.96,0.55 -0.28,0 -0.66,-0.03 -1.21,-0.1 -0.53,-0.08 -1.1,-0.2 -1.71,-0.41 -0.6,-0.19 -1.2,-0.51 -1.79,-0.94 -0.62,-0.45 -1.08,-1.03 -1.41,-1.76 -0.6,-1.26 -1.33,-3.37 -2.16,-6.29 -0.83,-2.94 -1.74,-6.24 -2.71,-9.95 -0.96,-3.71 -1.93,-7.57 -2.86,-11.61 -0.94,-4.03 -1.82,-7.82 -2.61,-11.34"
     id="path37"
     inkscape:connector-curvature="0" /><path
     d="m 229.58677,349.15123 c -1.01,3.21 -1.89,6.16 -2.66,8.89 -0.78,2.73 -1.49,4.98 -2.16,6.71 -0.75,1.94 -2.21,2.91 -4.42,2.91 -1.54,0 -2.66,-0.38 -3.37,-1.15 -0.7,-0.78 -1.05,-1.76 -1.05,-2.96 0,-0.46 0.07,-0.9 0.2,-1.31 0.13,-0.38 0.55,-1.76 1.26,-4.09 0.7,-2.32 1.61,-5.23 2.76,-8.7 1.13,-3.47 2.39,-7.27 3.75,-11.39 1.38,-4.13 2.79,-8.22 4.27,-12.26 1.46,-4.04 2.91,-7.81 4.32,-11.29 1.4,-3.5 2.71,-6.33 3.9,-8.45 0.55,-1.13 1.26,-1.91 2.16,-2.31 0.91,-0.4 2.13,-0.6 3.68,-0.6 1.48,0 2.72,0.25 3.75,0.7 1.05,0.48 1.76,1.28 2.16,2.41 0.95,1.99 2.08,4.68 3.37,8.04 1.3,3.37 2.68,7.01 4.1,10.91 1.45,3.9 2.86,7.89 4.27,11.94 1.41,4.07 2.71,7.86 3.87,11.36 1.16,3.49 2.18,6.48 3.01,8.95 0.83,2.47 1.36,4.07 1.56,4.78 0.12,0.42 0.2,0.85 0.2,1.31 0,1.2 -0.4,2.18 -1.21,2.96 -0.8,0.76 -1.98,1.15 -3.51,1.15 -1.14,0 -1.99,-0.25 -2.57,-0.77 -0.55,-0.48 -1.01,-1.21 -1.35,-2.14 -0.66,-1.73 -1.46,-3.98 -2.36,-6.71 -0.9,-2.72 -1.86,-5.68 -2.86,-8.89 z m 22.28,-8.71 c -1.41,-4.33 -2.74,-8.32 -4.02,-11.94 -1.28,-3.64 -2.57,-7.09 -3.92,-10.36 -0.33,-0.73 -0.68,-1.56 -1.05,-2.56 -0.37,-0.95 -0.58,-1.53 -0.65,-1.73 -0.07,0.05 -0.3,0.61 -0.65,1.64 -0.38,1.03 -0.73,1.91 -1.06,2.64 -1.33,3.27 -2.63,6.73 -3.88,10.36 -1.23,3.62 -2.56,7.61 -3.95,11.94 h 19.18 z"
     id="path39"
     inkscape:connector-curvature="0" /><path
     d="m 285.87677,342.44123 c -0.33,-0.32 -0.65,-0.7 -0.95,-1.1 -0.31,-0.38 -0.63,-0.86 -0.96,-1.39 -0.95,-1.33 -1.94,-2.94 -3.06,-4.85 -1.11,-1.89 -2.21,-3.92 -3.32,-6.04 -1.1,-2.14 -2.16,-4.3 -3.19,-6.46 -1.05,-2.16 -1.99,-4.17 -2.81,-6.03 -0.85,-1.88 -1.56,-3.5 -2.16,-4.85 -0.62,-1.38 -1,-2.34 -1.11,-2.87 -0.13,-0.33 -0.21,-0.58 -0.25,-0.75 -0.02,-0.17 -0.05,-0.42 -0.05,-0.75 0,-1.2 0.42,-2.21 1.25,-2.99 0.85,-0.81 1.99,-1.21 3.47,-1.21 1.33,0 2.28,0.33 2.86,1 0.56,0.68 1,1.35 1.25,2.01 0.13,0.35 0.46,1.06 0.96,2.19 0.5,1.15 1.11,2.54 1.84,4.2 0.73,1.66 1.58,3.5 2.51,5.5 0.96,2.01 1.89,3.97 2.87,5.91 0.96,1.93 1.91,3.77 2.81,5.55 0.9,1.76 1.76,3.21 2.56,4.35 1.28,-1.94 2.64,-4.37 4.12,-7.31 1.46,-2.94 2.87,-5.83 4.2,-8.69 1.34,-2.87 2.49,-5.41 3.47,-7.61 0.96,-2.21 1.54,-3.57 1.76,-4.1 0.27,-0.66 0.68,-1.33 1.25,-2.01 0.56,-0.66 1.53,-1 2.86,-1 1.48,0 2.62,0.4 3.47,1.21 0.83,0.78 1.25,1.79 1.25,2.99 0,0.33 -0.02,0.58 -0.05,0.75 -0.03,0.17 -0.12,0.42 -0.23,0.75 -0.21,0.53 -0.6,1.49 -1.16,2.91 -0.56,1.39 -1.28,3.04 -2.12,4.9 -0.83,1.86 -1.76,3.89 -2.79,6.05 -1.05,2.18 -2.11,4.32 -3.21,6.46 -1.11,2.12 -2.21,4.17 -3.32,6.1 -1.1,1.93 -2.13,3.57 -3.06,4.9 -0.6,0.86 -1.25,1.64 -1.91,2.29 v 20.71 c 0,1.33 -0.41,2.41 -1.26,3.26 -0.83,0.81 -1.91,1.25 -3.26,1.25 -1.35,0 -2.42,-0.43 -3.26,-1.25 -0.85,-0.85 -1.26,-1.93 -1.26,-3.26 v -20.72 z"
     id="path41"
     inkscape:connector-curvature="0" /></g>
	</g>
</svg>